<svg xmlns="http://www.w3.org/2000/svg" viewBox="0 0 64 64">
  <rect width="64" height="64" rx="12" fill="#0f172a"/>
  <g fill="#fff">
    <path d="M10 10h16v16H10zM14 14v8h8v-8z" fill-rule="evenodd"/>
    <path d="M38 10h16v16H38zM42 14v8h8v-8z" fill-rule="evenodd"/>
    <path d="M10 38h16v16H10zM14 42v8h8v-8z" fill-rule="evenodd"/>
  </g>
  <rect x="16" y="16" width="4" height="4" fill="#fe8c01"/>
  <rect x="44" y="16" width="4" height="4" fill="#fe8c01"/>
  <rect x="16" y="44" width="4" height="4" fill="#fe8c01"/>
  <g fill="#fff">
    <rect x="32" y="14" width="4" height="4"/><rect x="32" y="22" width="4" height="4"/>
    <rect x="32" y="32" width="4" height="4"/><rect x="40" y="32" width="4" height="4"/>
    <rect x="48" y="32" width="4" height="4"/><rect x="32" y="40" width="4" height="4"/>
    <rect x="40" y="40" width="4" height="4"/><rect x="48" y="48" width="4" height="4"/>
    <rect x="40" y="48" width="4" height="4"/>
  </g>
  <rect x="48" y="40" width="4" height="4" fill="#fe8c01"/>
</svg>
